<svg width="51" height="20" viewBox="0 0 51 20" fill="none" xmlns="http://www.w3.org/2000/svg">
<path d="M3.32801 8.80037C4.99624 6.9266 6.3929 5.39011 7.75076 3.85362C8.09992 3.47886 8.44908 3.10409 8.72066 2.69187C9.34139 1.79246 9.34141 1.755 8.06114 0.743164C7.75078 1.00549 7.36282 1.23033 7.09124 1.5676C4.95747 3.81613 2.86248 6.10213 0.728699 8.38813C-0.202404 9.39996 -0.241219 9.58735 0.612292 10.5992C2.90125 13.3724 5.22902 16.1455 7.55678 18.9187C7.78955 19.2185 8.21633 19.4059 8.64308 19.7432C8.95345 18.8063 8.41027 18.3566 8.02231 17.9069C6.62565 16.1081 5.15141 14.3467 3.75475 12.5854C3.40559 12.1731 3.13403 11.7234 2.55209 10.9364C18.924 10.3743 34.9079 10.7116 50.8918 10.2244C51.2022 9.28755 50.8142 8.8753 50.1159 8.68793C49.6892 8.5755 49.2236 8.613 48.7581 8.613C37.4296 8.72542 26.14 8.83783 14.8116 8.95026C11.5915 8.98773 8.33268 8.98775 5.11261 8.98775C4.68586 8.9128 4.22032 8.87532 3.32801 8.80037Z" fill="#262626"/>
</svg>
