<svg width="51" height="20" viewBox="0 0 51 20" fill="none" xmlns="http://www.w3.org/2000/svg">
<path d="M47.672 8.80037C46.0038 6.9266 44.6071 5.39011 43.2492 3.85362C42.9001 3.47886 42.5509 3.10409 42.2793 2.69187C41.6586 1.79246 41.6586 1.755 42.9389 0.743164C43.2492 1.00549 43.6372 1.23033 43.9088 1.5676C46.0425 3.81613 48.1375 6.10213 50.2713 8.38813C51.2024 9.39996 51.2412 9.58735 50.3877 10.5992C48.0987 13.3724 45.771 16.1455 43.4432 18.9187C43.2104 19.2185 42.7837 19.4059 42.3569 19.7432C42.0466 18.8063 42.5897 18.3566 42.9777 17.9069C44.3743 16.1081 45.8486 14.3467 47.2452 12.5854C47.5944 12.1731 47.866 11.7234 48.4479 10.9364C32.076 10.3743 16.0921 10.7116 0.108166 10.2244C-0.202201 9.28755 0.185761 8.8753 0.884087 8.68793C1.31084 8.5755 1.77639 8.613 2.24194 8.613C13.5704 8.72542 24.86 8.83783 36.1884 8.95026C39.4085 8.98773 42.6673 8.98775 45.8874 8.98775C46.3141 8.9128 46.7797 8.87532 47.672 8.80037Z" fill="#262626"/>
</svg>
