<svg width="16" height="17" viewBox="0 0 16 17" fill="none" xmlns="http://www.w3.org/2000/svg">
<path fill-rule="evenodd" clip-rule="evenodd" d="M15.6039 3.09442C15.7869 3.59871 15.9242 4.14886 15.97 5.01992C16.0157 5.89098 16.0157 6.12021 15.9242 8.32078C15.9242 10.4755 15.9242 10.7506 15.8784 11.6216C15.8327 12.4469 15.6954 13.0428 15.5124 13.5471C15.3293 14.0973 15.0548 14.5099 14.5972 14.9683C14.1396 15.4268 13.7278 15.7019 13.1786 15.8853C12.6753 16.0686 12.1262 16.2062 11.2568 16.252C10.3873 16.2979 10.1585 16.2979 7.9621 16.2979C5.81142 16.2979 5.53686 16.2979 4.66744 16.252C3.84377 16.2062 3.2489 16.0686 2.74555 15.8853C2.19644 15.7019 1.78461 15.4268 1.32702 14.9683C0.869425 14.5099 0.594869 14.0973 0.411833 13.5471C0.228796 13.0428 0.0915182 12.4927 0.045759 11.6216C0 10.7506 0 10.5214 0 8.32078C0 6.12021 0 5.89098 0.045759 4.97407C0.0915182 4.14886 0.228796 3.55287 0.411833 3.04857C0.594869 2.49843 0.869425 2.08582 1.32702 1.62737C1.78461 1.16891 2.19644 0.89384 2.74555 0.710459C3.29466 0.527078 3.84377 0.389541 4.7132 0.343696C5.58262 0.297852 5.81142 0.297852 8.00786 0.297852C10.2043 0.297852 10.4331 0.297852 11.3483 0.389542C12.1719 0.435388 12.7668 0.572924 13.2702 0.756305C13.8193 0.939686 14.2311 1.21476 14.6887 1.67321C15.1463 2.13166 15.4208 2.54427 15.6039 3.09442ZM8.00077 12.4217C10.2783 12.4217 12.1246 10.5754 12.1246 8.29789C12.1246 6.02037 10.2783 4.17407 8.00077 4.17407C5.72325 4.17407 3.87695 6.02037 3.87695 8.29789C3.87695 10.5754 5.72325 12.4217 8.00077 12.4217ZM13.2405 4.03285C13.2405 4.57281 12.8028 5.01053 12.2628 5.01053C11.7229 5.01053 11.2852 4.57281 11.2852 4.03285C11.2852 3.4929 11.7229 3.05518 12.2628 3.05518C12.8028 3.05518 13.2405 3.4929 13.2405 4.03285ZM8.00046 10.9534C9.46707 10.9534 10.656 9.76449 10.656 8.29787C10.656 6.83126 9.46707 5.64233 8.00046 5.64233C6.53385 5.64233 5.34492 6.83126 5.34492 8.29787C5.34492 9.76449 6.53385 10.9534 8.00046 10.9534Z" fill="#F2E0AB"/>
</svg>
