<svg width="133" height="31" viewBox="0 0 133 31" fill="none" xmlns="http://www.w3.org/2000/svg">
<g clip-path="url(#clip0)">
<path d="M7.44908 0C1.35438 0 0 2.03157 0 5.75611V24.4465C0 28.1711 1.35438 30.2027 7.44908 30.2027C13.5438 30.2027 14.8982 28.1711 14.8982 24.4465V16.9975C14.8982 16.4557 14.4241 15.9817 13.8824 15.9817H9.75153C9.20978 15.9817 8.73574 16.4557 8.73574 16.9975V22.3473C8.73574 22.889 8.46487 23.5662 7.44908 23.5662C6.50102 23.5662 6.16242 22.9567 6.16242 22.3473V7.11049C6.16242 6.56874 6.4333 5.75611 7.44908 5.75611C8.39715 5.75611 8.73574 6.56874 8.73574 7.11049V10.2256C8.73574 10.7673 9.20978 11.2413 9.75153 11.2413H13.8824C14.4241 11.2413 14.8982 10.7673 14.8982 10.2256V5.75611C14.8304 2.03157 13.5438 0 7.44908 0Z" fill="#000001"/>
<path d="M40.6312 0C34.5365 0 33.1821 2.03157 33.1821 5.75611V24.7174C33.1821 28.442 34.5365 30.4735 40.6312 30.4735C46.7259 30.4735 48.0803 28.442 48.0803 24.7174V5.75611C48.0126 2.09929 46.7259 0 40.6312 0ZM41.8502 23.4308C41.8502 23.9725 41.5793 24.6497 40.5635 24.6497C39.6154 24.6497 39.2768 24.0402 39.2768 23.4308V7.11049C39.2768 6.56874 39.5477 5.75611 40.5635 5.75611C41.5116 5.75611 41.8502 6.56874 41.8502 7.11049V23.4308Z" fill="#000001"/>
<path d="M23.9725 0C17.8778 0 16.5234 2.03157 16.5234 5.75611V24.7174C16.5234 28.442 17.8778 30.4735 23.9725 30.4735C30.0672 30.4735 31.4216 28.442 31.4216 24.7174V5.75611C31.4216 2.09929 30.0672 0 23.9725 0ZM25.2592 20.1125C25.2592 20.6543 24.9883 21.3315 23.9725 21.3315C23.0245 21.3315 22.6859 20.722 22.6859 20.1125V7.17821C22.6859 6.63646 22.9567 5.82383 23.9725 5.82383C24.9206 5.82383 25.2592 6.63646 25.2592 7.17821V20.1125Z" fill="#000001"/>
<path d="M62.7078 24.1758C62.0983 23.9726 60.5408 24.108 56.9516 24.108C56.3422 24.108 55.9359 23.634 55.9359 23.0922V1.48991C55.9359 0.948154 55.4618 0.474121 54.9201 0.474121C54.6492 0.474121 51.331 0.474121 50.7892 0.474121C50.2475 0.474121 49.7734 0.948154 49.7734 1.48991V28.9838C49.7734 29.5255 49.9766 30.2705 50.7892 30.2705C51.6018 30.2705 61.8951 30.2705 62.7078 30.2705C63.5204 30.2705 63.7235 29.5255 63.7235 28.9838V25.3947C63.7235 24.8529 63.3172 24.3112 62.7078 24.1758Z" fill="#000001"/>
<path d="M78.9603 0.474121C78.4186 0.474121 75.4389 0.474121 74.8295 0.474121C74.22 0.474121 73.8137 0.948154 73.8137 1.48991V9.81933C73.8137 10.3611 73.4751 11.106 72.5947 11.106C71.7144 11.106 71.3758 10.3611 71.3758 9.81933L71.5112 1.48991C71.5112 0.948154 70.9018 0.474121 70.4955 0.474121C67.719 0.474121 66.7032 0.474121 66.2292 0.474121C65.7551 0.474121 65.2134 0.948154 65.2134 1.48991V29.1192C65.2134 29.661 65.6874 30.135 66.2292 30.135H70.36C70.9018 30.135 71.3758 29.661 71.3758 29.1192V19.3677C71.3758 18.826 71.7144 18.081 72.5947 18.081C73.4751 18.081 73.8814 18.826 73.8814 19.3677V29.1192C73.8814 29.661 74.3554 30.135 74.8972 30.135H79.028C79.5698 30.135 80.0438 29.661 80.0438 29.1192V1.48991C79.9761 0.948154 79.5021 0.474121 78.9603 0.474121Z" fill="#000001"/>
<path d="M92.6394 1.35438C92.5717 0.880343 92.1654 0.541748 91.6236 0.541748H86.3415C85.8675 0.541748 85.4612 0.880343 85.3258 1.35438L80.7886 28.9837C80.7209 29.5932 81.1272 30.1349 81.8044 30.1349H85.7998C86.3415 30.1349 86.7478 29.7286 86.8156 29.2546L87.2896 24.9883C87.3573 24.4465 87.7636 24.1079 88.3054 24.1079H89.7275C90.2692 24.1079 90.6755 24.5143 90.7433 24.9883L91.1496 29.1869C91.2173 29.7286 91.6236 30.0672 92.1654 30.0672H96.2962C96.9057 30.0672 97.3797 29.5255 97.312 28.916L92.6394 1.35438ZM88.9826 18.7581C87.8991 18.7581 87.4928 17.8778 87.6282 17.2006L88.8471 10.835C88.8471 10.6319 89.118 10.6319 89.118 10.835L90.2692 17.2006C90.4724 17.9455 90.0661 18.7581 88.9826 18.7581Z" fill="#000001"/>
<path d="M120.54 9.81925V6.63646C120.54 6.16242 120.878 5.41752 121.758 5.41752C122.639 5.41752 122.977 6.16242 122.977 6.63646V9.34521C122.977 9.88697 123.451 10.361 123.993 10.361H128.124C128.666 10.361 129.14 9.88697 129.14 9.34521V5.41752C129.14 2.03157 127.785 0 121.826 0C115.867 0 114.513 1.96385 114.513 5.41752V10.4964C114.513 16.9297 123.045 17.3361 123.045 20.7897V22.3472C123.045 22.8213 122.707 23.4308 121.826 23.4308C120.946 23.4308 120.607 22.8213 120.607 22.3472V21.196C120.607 20.6543 120.133 20.1802 119.591 20.1802H115.461C114.919 20.1802 114.445 20.6543 114.445 21.196V25.1237C114.445 28.5097 115.799 30.5412 121.826 30.5412C127.853 30.5412 129.208 28.5774 129.208 25.1237V20.0448C129.072 13.7469 120.54 13.2729 120.54 9.81925Z" fill="#000001"/>
<path d="M111.804 0.474121C111.262 0.474121 108.283 0.474121 107.673 0.474121C107.064 0.474121 106.657 0.948154 106.657 1.48991V12.1218V19.9772C106.657 20.5866 106.387 21.2638 105.438 21.2638C104.558 21.2638 104.22 20.5866 104.22 19.9772V12.1218V1.48991C104.22 0.948154 103.813 0.474121 103.204 0.474121C102.662 0.474121 99.5469 0.474121 99.0729 0.474121C98.5989 0.474121 98.0571 0.948154 98.0571 1.48991V21.941V24.7852C98.0571 28.5775 99.4115 30.6091 105.371 30.6091C111.398 30.6091 112.684 28.5775 112.684 24.7852V21.941V1.48991C112.82 0.948154 112.346 0.474121 111.804 0.474121Z" fill="#000001"/>
<path d="M130.968 28.7806H130.427V30.135H130.02V28.7806H129.479V28.3743H130.968V28.7806ZM133 30.135H132.594V29.3223L132.187 29.7964H132.052L131.646 29.3223V30.135H131.171V28.3743H131.307L132.052 29.3223L132.797 28.3743H132.932V30.135H133Z" fill="#000001"/>
</g>
<defs>
<clipPath id="clip0">
<rect width="133" height="30.609" fill="white"/>
</clipPath>
</defs>
</svg>
